# xmcd CD database file
#
# Track frame offsets:
#	150
#	12470
#	32574
#	56585
#	78870
#	111521
#	138634
#	169712
#	179368
#	203222
#	228236
#
# Disc length: 3471 seconds
#
# Revision: 0
# Processed by: cddbd v1.5.1PL0 Copyright (c) Steve Scherf et al.
# Submitted via: CDex 1.51
#
DISCID=900d8d0b
DTITLE=吉本有里 - 夢の中で聞こえた歌
DYEAR=2002
DGENRE=New Age
TTITLE0=フリーソング1
TTITLE1=夢の中で聞こえた歌
TTITLE2=あこがれひとつに
TTITLE3=人生は螺旋階段のように
TTITLE4=本当のあなたは
TTITLE5=月の言葉
TTITLE6=わたしは船の中
TTITLE7=フリーソング2
TTITLE8=わたしの花道
TTITLE9=永遠の今
TTITLE10=君の瞳
EXTD=YEAR: 2002
EXTT0=
EXTT1=
EXTT2=
EXTT3=
EXTT4=
EXTT5=
EXTT6=
EXTT7=
EXTT8=
EXTT9=
EXTT10=
PLAYORDER=
